<svg class="icon icon-integrations" viewBox="0 0 18 20" width="18" height="20" fill="none" xmlns="http://www.w3.org/2000/svg"><path d="M3.25.5C2.23.5 1.369.91.814 1.533.26 2.157 0 2.958 0 3.75s.26 1.593.814 2.217a3.1 3.1 0 0 0 1.686.955v7.328C2.5 15.76 3.74 17 5.25 17h2.19l-.72.72a.75.75 0 1 0 1.06 1.06l2-2a.75.75 0 0 0 0-1.06l-2-2a.75.75 0 1 0-1.06 1.06l.72.72H5.25c-.7 0-1.25-.55-1.25-1.25V6.908A3.263 3.263 0 0 0 6.5 3.75 3.261 3.261 0 0 0 3.25.5Zm7.485.493a.75.75 0 0 0-.515.227l-2 2a.75.75 0 0 0 0 1.06l2 2a.75.75 0 1 0 1.06-1.06l-.72-.72h2.19c.7 0 1.25.55 1.25 1.25v7.402c-.675.151-1.28.426-1.685.881-.555.624-.815 1.425-.815 2.217s.26 1.593.815 2.217c.554.623 1.414 1.033 2.435 1.033A3.261 3.261 0 0 0 18 16.25c0-1.52-1.082-2.749-2.5-3.098V5.75C15.5 4.24 14.26 3 12.75 3h-2.19l.72-.72a.75.75 0 0 0-.545-1.287ZM3.25 2C4.225 2 5 2.775 5 3.75c0 .951-.738 1.706-1.68 1.743a.751.751 0 0 0-.146 0c-.597-.018-.971-.222-1.238-.522-.28-.314-.436-.763-.436-1.221 0-.458.156-.907.436-1.22.279-.315.668-.53 1.314-.53Zm11.454 12.509A1.733 1.733 0 0 1 16.5 16.25c0 .975-.775 1.75-1.75 1.75-.646 0-1.035-.215-1.315-.53-.279-.313-.435-.762-.435-1.22 0-.458.156-.907.435-1.22.272-.306.656-.51 1.27-.521Z" fill="#006ECF"/></svg>
